<mxfile host="drawio-plugin" modified="2022-06-09T07:34:12.408Z" agent="5.0 (Windows NT 6.2; Win64; x64) AppleWebKit/537.36 (KHTML, like Gecko) Chrome/89.0.4389.114 Safari/537.36" etag="V3xUmn2Fq__ZkQSX7JJp" version="15.5.4" type="embed"><diagram id="McAt_sUK99tyPyiUu4L-" name="Page-1"><mxGraphModel dx="749" dy="723" grid="1" gridSize="10" guides="1" tooltips="1" connect="1" arrows="1" fold="1" page="1" pageScale="1" pageWidth="850" pageHeight="1100" math="0" shadow="0"><root><mxCell id="0"/><mxCell id="1" parent="0"/><mxCell id="33" value="Auora Application" style="swimlane;" parent="1" vertex="1"><mxGeometry x="170" y="160" width="440" height="440" as="geometry"/></mxCell><mxCell id="20" value="Write comment" style="ellipse;whiteSpace=wrap;html=1;" parent="33" vertex="1"><mxGeometry x="190" y="215" width="110" height="50" as="geometry"/></mxCell><mxCell id="4" value="Ask question" style="ellipse;whiteSpace=wrap;html=1;" parent="33" vertex="1"><mxGeometry x="160" y="280" width="110" height="50" as="geometry"/></mxCell><mxCell id="21" style="edgeStyle=none;rounded=0;orthogonalLoop=1;jettySize=auto;html=1;endArrow=open;endFill=0;dashed=1;" parent="33" source="20" target="4" edge="1"><mxGeometry relative="1" as="geometry"/></mxCell><mxCell id="45" value="&amp;lt;&amp;lt;extends&amp;gt;&amp;gt;" style="edgeLabel;html=1;align=center;verticalAlign=middle;resizable=0;points=[];" parent="21" vertex="1" connectable="0"><mxGeometry x="0.51" y="-2" relative="1" as="geometry"><mxPoint x="41" y="-2" as="offset"/></mxGeometry></mxCell><mxCell id="3" value="Logout" style="ellipse;whiteSpace=wrap;html=1;" parent="33" vertex="1"><mxGeometry x="110" y="340" width="110" height="50" as="geometry"/></mxCell><mxCell id="2" value="Login" style="ellipse;whiteSpace=wrap;html=1;" parent="33" vertex="1"><mxGeometry x="20" y="380" width="110" height="50" as="geometry"/></mxCell><mxCell id="5" value="Start thread" style="ellipse;whiteSpace=wrap;html=1;" parent="33" vertex="1"><mxGeometry x="190" y="130" width="110" height="50" as="geometry"/></mxCell><mxCell id="22" style="edgeStyle=none;rounded=0;orthogonalLoop=1;jettySize=auto;html=1;endArrow=open;endFill=0;dashed=1;" parent="33" source="20" target="5" edge="1"><mxGeometry relative="1" as="geometry"/></mxCell><mxCell id="46" value="&amp;lt;&amp;lt;extends&amp;gt;&amp;gt;" style="edgeLabel;html=1;align=center;verticalAlign=middle;resizable=0;points=[];" parent="22" vertex="1" connectable="0"><mxGeometry x="0.3288" relative="1" as="geometry"><mxPoint x="35" y="10" as="offset"/></mxGeometry></mxCell><mxCell id="8" value="Up/down vote question&amp;nbsp;" style="ellipse;whiteSpace=wrap;html=1;" parent="33" vertex="1"><mxGeometry x="10" y="35" width="110" height="50" as="geometry"/></mxCell><mxCell id="10" value="Up/down vote comment" style="ellipse;whiteSpace=wrap;html=1;" parent="33" vertex="1"><mxGeometry x="110" y="80" width="110" height="50" as="geometry"/></mxCell><mxCell id="11" value="Create account" style="ellipse;whiteSpace=wrap;html=1;" parent="33" vertex="1"><mxGeometry x="320" y="85" width="110" height="50" as="geometry"/></mxCell><mxCell id="24" value="View questions" style="ellipse;whiteSpace=wrap;html=1;" parent="33" vertex="1"><mxGeometry x="320" y="145" width="110" height="50" as="geometry"/></mxCell><mxCell id="25" value="View thread" style="ellipse;whiteSpace=wrap;html=1;" parent="33" vertex="1"><mxGeometry x="320" y="205" width="110" height="50" as="geometry"/></mxCell><mxCell id="26" value="View comments" style="ellipse;whiteSpace=wrap;html=1;" parent="33" vertex="1"><mxGeometry x="320" y="265" width="110" height="50" as="geometry"/></mxCell><mxCell id="44" style="rounded=0;orthogonalLoop=1;jettySize=auto;html=1;exitX=1;exitY=0.3333333333333333;exitDx=0;exitDy=0;exitPerimeter=0;endArrow=none;endFill=0;" parent="1" source="40" target="2" edge="1"><mxGeometry relative="1" as="geometry"/></mxCell><mxCell id="57" style="edgeStyle=none;rounded=0;orthogonalLoop=1;jettySize=auto;html=1;exitX=1;exitY=0.3333333333333333;exitDx=0;exitDy=0;exitPerimeter=0;endArrow=none;endFill=0;" edge="1" parent="1" source="40" target="4"><mxGeometry relative="1" as="geometry"/></mxCell><mxCell id="58" style="edgeStyle=none;rounded=0;orthogonalLoop=1;jettySize=auto;html=1;exitX=1;exitY=0.3333333333333333;exitDx=0;exitDy=0;exitPerimeter=0;endArrow=none;endFill=0;" edge="1" parent="1" source="40" target="20"><mxGeometry relative="1" as="geometry"/></mxCell><mxCell id="59" style="edgeStyle=none;rounded=0;orthogonalLoop=1;jettySize=auto;html=1;exitX=1;exitY=0.3333333333333333;exitDx=0;exitDy=0;exitPerimeter=0;endArrow=none;endFill=0;" edge="1" parent="1" source="40" target="5"><mxGeometry relative="1" as="geometry"/></mxCell><mxCell id="40" value="Member" style="shape=umlActor;verticalLabelPosition=bottom;verticalAlign=top;html=1;outlineConnect=0;" parent="1" vertex="1"><mxGeometry x="80" y="350" width="30" height="60" as="geometry"/></mxCell><mxCell id="47" value="&lt;font style=&quot;font-size: 10px&quot;&gt;Log off can and will not be implemented,as there &lt;br&gt;won't be enough time left to create a front- and backend&lt;/font&gt;" style="text;html=1;align=center;verticalAlign=middle;resizable=0;points=[];autosize=1;strokeColor=none;fillColor=none;" vertex="1" parent="1"><mxGeometry x="160" y="110" width="260" height="40" as="geometry"/></mxCell><mxCell id="48" style="rounded=0;orthogonalLoop=1;jettySize=auto;html=1;entryX=1;entryY=0.3333333333333333;entryDx=0;entryDy=0;entryPerimeter=0;endArrow=none;endFill=0;" edge="1" parent="1" source="3" target="40"><mxGeometry relative="1" as="geometry"/></mxCell><mxCell id="29" style="edgeStyle=none;rounded=0;orthogonalLoop=1;jettySize=auto;html=1;exitX=0;exitY=0.3333333333333333;exitDx=0;exitDy=0;exitPerimeter=0;endArrow=none;endFill=0;" parent="1" source="27" target="11" edge="1"><mxGeometry relative="1" as="geometry"/></mxCell><mxCell id="30" style="edgeStyle=none;rounded=0;orthogonalLoop=1;jettySize=auto;html=1;exitX=0;exitY=0.3333333333333333;exitDx=0;exitDy=0;exitPerimeter=0;endArrow=none;endFill=0;" parent="1" source="27" target="24" edge="1"><mxGeometry relative="1" as="geometry"/></mxCell><mxCell id="31" style="edgeStyle=none;rounded=0;orthogonalLoop=1;jettySize=auto;html=1;exitX=0;exitY=0.3333333333333333;exitDx=0;exitDy=0;exitPerimeter=0;endArrow=none;endFill=0;" parent="1" source="27" target="25" edge="1"><mxGeometry relative="1" as="geometry"/></mxCell><mxCell id="32" style="edgeStyle=none;rounded=0;orthogonalLoop=1;jettySize=auto;html=1;exitX=0;exitY=0.3333333333333333;exitDx=0;exitDy=0;exitPerimeter=0;endArrow=none;endFill=0;" parent="1" source="27" target="26" edge="1"><mxGeometry relative="1" as="geometry"/></mxCell><mxCell id="27" value="Visitor" style="shape=umlActor;verticalLabelPosition=bottom;verticalAlign=top;html=1;outlineConnect=0;" parent="1" vertex="1"><mxGeometry x="650" y="340" width="30" height="60" as="geometry"/></mxCell><mxCell id="63" style="edgeStyle=none;rounded=0;orthogonalLoop=1;jettySize=auto;html=1;entryX=1;entryY=0.3333333333333333;entryDx=0;entryDy=0;entryPerimeter=0;endArrow=none;endFill=0;" edge="1" parent="1" source="10" target="40"><mxGeometry relative="1" as="geometry"/></mxCell><mxCell id="64" style="edgeStyle=none;rounded=0;orthogonalLoop=1;jettySize=auto;html=1;entryX=1;entryY=0.3333333333333333;entryDx=0;entryDy=0;entryPerimeter=0;endArrow=none;endFill=0;" edge="1" parent="1" source="8" target="40"><mxGeometry relative="1" as="geometry"/></mxCell><mxCell id="65" value="" style="html=1;verticalLabelPosition=bottom;labelBackgroundColor=#ffffff;verticalAlign=top;shadow=0;dashed=0;strokeWidth=2;shape=mxgraph.ios7.misc.info;strokeColor=#0080f0;sketch=0;" vertex="1" parent="1"><mxGeometry x="140" y="120" width="20" height="20" as="geometry"/></mxCell></root></mxGraphModel></diagram></mxfile>